<svg width="64" height="55" viewBox="0 0 64 55" fill="none" xmlns="http://www.w3.org/2000/svg">
<path d="M50.6667 25.2084H13.3333C10.3878 25.2084 8 27.2604 8 29.7917V45.8334C8 48.3647 10.3878 50.4167 13.3333 50.4167H50.6667C53.6122 50.4167 56 48.3647 56 45.8334V29.7917C56 27.2604 53.6122 25.2084 50.6667 25.2084Z" stroke="#A6A6A6" stroke-width="2" stroke-linecap="round" stroke-linejoin="round"/>
<path d="M18.6665 25.2084V16.0417C18.6665 13.0028 20.0713 10.0883 22.5717 7.93944C25.0722 5.79059 28.4636 4.58337 31.9998 4.58337C35.5361 4.58337 38.9274 5.79059 41.4279 7.93944C43.9284 10.0883 45.3332 13.0028 45.3332 16.0417V25.2084" stroke="#A6A6A6" stroke-width="2" stroke-linecap="round" stroke-linejoin="round"/>
</svg>
