<svg width="89" height="43" viewBox="0 0 89 43" fill="none" xmlns="http://www.w3.org/2000/svg">
<path d="M1.24549 21.6705C1.01912 21.4476 0.834918 21.2623 0.694636 21.1193C0.834918 20.9763 1.01912 20.791 1.24549 20.5682C1.82669 19.9961 2.68568 19.177 3.79296 18.1932C6.00799 16.2253 9.21404 13.6007 13.1751 10.9765C21.106 5.72234 32.0182 0.5 44.0399 0.5C56.0615 0.5 66.9737 5.72234 74.9046 10.9765C78.8657 13.6007 82.0717 16.2253 84.2868 18.1932C85.394 19.177 86.253 19.9961 86.8342 20.5682C87.0606 20.791 87.2448 20.9763 87.3851 21.1193C87.2448 21.2623 87.0606 21.4476 86.8342 21.6705C86.253 22.2426 85.394 23.0617 84.2868 24.0454C82.0717 26.0134 78.8657 28.638 74.9046 31.2621C66.9737 36.5163 56.0615 41.7386 44.0399 41.7386C32.0182 41.7386 21.106 36.5163 13.1751 31.2621C9.21404 28.638 6.00799 26.0134 3.79296 24.0454C2.68568 23.0617 1.82669 22.2426 1.24549 21.6705Z" stroke="#A6A6A6"/>
<path d="M63.5582 20.4153C63.5582 28.9876 54.924 36.1068 44.0401 36.1068C33.1562 36.1068 24.522 28.9876 24.522 20.4153C24.522 11.8431 33.1562 4.72388 44.0401 4.72388C54.924 4.72388 63.5582 11.8431 63.5582 20.4153Z" stroke="#A6A6A6"/>
<path d="M53.9498 20.4153C53.9498 24.3205 49.9779 27.659 44.8411 27.659C39.7044 27.659 35.7324 24.3205 35.7324 20.4153C35.7324 16.51 39.7044 13.1715 44.8411 13.1715C49.9779 13.1715 53.9498 16.51 53.9498 20.4153Z" fill="#A6A6A6" stroke="#A6A6A6"/>
</svg>
