<svg width="561" height="549" viewBox="0 0 561 549" fill="none" xmlns="http://www.w3.org/2000/svg">
<path d="M561 274.5C561 549 561 549 280.5 549C0.00012207 549 -3.33785e-06 549 0 274.5C3.33785e-06 -9.15527e-05 3.05176e-05 7.5324e-09 280.5 0C561 -7.53224e-09 561 -3.05176e-05 561 274.5Z" fill="white"/>
<path d="M560.5 274.5C560.5 343.137 560.499 394.572 556.12 433.139C551.741 471.708 542.993 497.297 525.588 514.33C508.181 531.365 482.026 539.928 442.61 544.214C403.198 548.499 350.637 548.5 280.5 548.5C210.363 548.5 157.802 548.499 118.39 544.214C78.9736 539.928 52.8194 531.365 35.4123 514.33C18.0073 497.298 9.2588 471.708 4.87964 433.139C0.500781 394.572 0.499999 343.138 0.5 274.5C0.500001 205.863 0.500777 154.428 4.87963 115.861C9.25878 77.2918 18.0073 51.7024 35.4122 34.6698C52.8194 17.6351 78.9735 9.07204 118.39 4.78612C157.802 0.500705 210.363 0.5 280.5 0.5C350.637 0.5 403.198 0.500709 442.61 4.78613C482.026 9.07205 508.181 17.6351 525.588 34.6698C542.993 51.7025 551.741 77.2918 556.12 115.861C560.499 154.428 560.5 205.863 560.5 274.5Z" stroke="#0CBC8B" stroke-opacity="0.65"/>
</svg>
